<?xml version="1.0" standalone="no"?><!DOCTYPE svg PUBLIC "-//W3C//DTD SVG 1.1//EN" "http://www.w3.org/Graphics/SVG/1.1/DTD/svg11.dtd"><svg t="1573628988740" class="icon" viewBox="0 0 1024 1024" version="1.1" xmlns="http://www.w3.org/2000/svg" p-id="3654" xmlns:xlink="http://www.w3.org/1999/xlink" width="200" height="200"><defs><style type="text/css"></style></defs><path d="M995.775083 515.38699c-10.725469 25.402426-55.320838 47.417861-121.931643 63.788313l0 77.336273 0 46.853363c75.07828-18.063947 122.496141-44.030871 124.189636-73.384785L998.033076 527.241455C998.033076 523.289967 996.904079 519.338479 995.775083 515.38699z" p-id="3655"></path><path d="M995.775083 330.796031c-10.725469 24.837927-55.320838 47.417861-121.931643 63.788313l0 77.336273 0 46.853363c75.07828-18.063947 122.496141-44.030871 124.189636-73.384785L998.033076 343.214994C998.033076 339.263506 996.904079 334.747519 995.775083 330.796031z" p-id="3656"></path><path d="M606.835722 77.336273c-216.202867 0-391.761852 46.288864-391.761852 102.738699l0 69.997795c69.997795-14.676957 163.140022-24.837927 266.443219-20.886439 205.477398 7.338479 337.005513 54.191841 390.632856 127.576626 75.07828-18.063947 123.060639-44.030871 124.754135-73.384785l1.128997-102.738699C998.033076 123.625138 823.038589 77.336273 606.835722 77.336273z" p-id="3657"></path><path d="M811.748622 402.487321c0-56.449835-175.558986-102.738699-391.761852-102.738699S28.224917 346.037486 28.224917 402.487321l0 0 0 102.738699 0 0c3.951488 55.885336 177.252481 100.480706 391.197354 100.480706 213.380375 0 386.681367-44.595369 391.197354-100.480706l0 0L811.748622 402.487321z" p-id="3658"></path><path d="M420.551268 644.657111C220.154355 644.657111 54.75634 604.577729 32.740904 553.208379c-2.257993 3.951488-2.822492 7.902977-2.822492 11.854465l0 102.738699 0 0c3.951488 55.885336 177.252481 100.480706 391.197354 100.480706 213.380375 0 386.681367-44.595369 391.197354-100.480706l0 0 0-102.738699c0-3.951488-1.128997-7.902977-2.822492-11.854465C786.910695 604.577729 621.512679 644.657111 420.551268 644.657111z" p-id="3659"></path><path d="M420.551268 828.683572c-200.961411 0-366.359427-40.079383-388.374862-91.448732-2.257993 3.951488-2.822492 7.902977-2.822492 11.854465L29.353914 852.392503l0 0c3.951488 55.885336 177.252481 100.480706 391.197354 100.480706 213.380375 0 386.681367-44.595369 391.197354-100.480706l0 0 0-102.738699c0-3.951488-1.128997-7.902977-2.822492-11.854465C786.910695 789.733186 621.512679 828.683572 420.551268 828.683572z" p-id="3660"></path></svg>