<?xml version="1.0" standalone="no"?><!DOCTYPE svg PUBLIC "-//W3C//DTD SVG 1.1//EN" "http://www.w3.org/Graphics/SVG/1.1/DTD/svg11.dtd"><svg t="1573629636963" class="icon" viewBox="0 0 1024 1024" version="1.1" xmlns="http://www.w3.org/2000/svg" p-id="17877" xmlns:xlink="http://www.w3.org/1999/xlink" width="200" height="200"><defs><style type="text/css"></style></defs><path d="M256 819.2h512c30.72 0 51.2 20.48 51.2 51.2s-20.48 51.2-51.2 51.2H256c-30.72 0-51.2-20.48-51.2-51.2s20.48-51.2 51.2-51.2zM256 179.2c-30.72 0-51.2 20.48-51.2 51.2V614.4c0 30.72 20.48 51.2 51.2 51.2h512c30.72 0 51.2-20.48 51.2-51.2V230.4c0-30.72-20.48-51.2-51.2-51.2H256z m-51.2-102.4h614.4c56.32 0 102.4 46.08 102.4 102.4V665.6c0 56.32-46.08 102.4-102.4 102.4H204.8c-56.32 0-102.4-46.08-102.4-102.4V179.2c0-56.32 46.08-102.4 102.4-102.4z m327.68 476.16c-15.36 0-25.6-5.12-35.84-15.36L419.84 465.92l-35.84 35.84c-20.48 20.48-51.2 20.48-71.68 0-20.48-20.48-20.48-51.2 0-71.68L384 358.4c20.48-20.48 51.2-20.48 71.68 0l71.68 71.68 107.52-107.52c20.48-20.48 51.2-20.48 71.68 0 20.48 20.48 20.48 51.2 0 71.68L563.2 537.6c-5.12 10.24-20.48 15.36-30.72 15.36z" fill="#000000" p-id="17878"></path></svg>